<?xml version="1.0" ?>
<!DOCTYPE svg  PUBLIC '-//W3C//DTD SVG 1.1//EN'  'http://www.w3.org/Graphics/SVG/1.1/DTD/svg11.dtd'>
<!-- Uploaded to: SVG Repo, www.svgrepo.com, Generator: SVG Repo Mixer Tools -->
<svg width="800px" height="800px" viewBox="0 0 512 512" version="1.1" xml:space="preserve" xmlns="http://www.w3.org/2000/svg" xmlns:xlink="http://www.w3.org/1999/xlink">
<g id="_x35_31_x2C__calender_x2C__day_x2C__love_x2C__wedding">
<g>
<path d="M70.25,192.57v-31.71c0-22.521,18.25-40.78,40.77-40.78h22.65v36.25h45.31v-36.25h154.04v36.25    h45.311v-36.25h22.65c22.52,0,40.77,18.26,40.77,40.78v226.53c0,22.52-18.25,40.77-40.77,40.77H111.02    c-22.52,0-40.77-18.25-40.77-40.77V192.57z M405.51,305.38c0-12.26-9.939-22.199-22.22-22.199c-11.09,0-16.64,5.55-22.19,16.649    c-5.55-11.1-11.1-16.649-22.189-16.649c-12.25,0-22.19,9.939-22.19,22.199c0,22.19,22.19,34.82,44.38,57.021    C383.29,340.2,405.51,327.57,405.51,305.38z M314.9,373.801V355.67h-18.12v18.131H314.9z M314.9,265.061v-18.12h-18.12v18.12    H314.9z M278.65,373.801V355.67h-18.12v18.131H278.65z M278.65,301.311v-18.13h-18.12v18.13H278.65z M278.65,265.061v-18.12    h-18.12v18.12H278.65z M242.41,373.801V355.67h-18.12v18.131H242.41z M242.41,337.551v-18.12h-18.12v18.12H242.41z     M242.41,301.311v-18.13h-18.12v18.13H242.41z M242.41,265.061v-18.12h-18.12v18.12H242.41z M206.16,373.801V355.67h-18.12v18.131    H206.16z M206.16,337.551v-18.12h-18.12v18.12H206.16z M206.16,301.311v-18.13h-18.12v18.13H206.16z M206.16,265.061v-18.12    h-18.12v18.12H206.16z M169.92,373.801V355.67H151.8v18.131H169.92z M169.92,337.551v-18.12H151.8v18.12H169.92z M169.92,301.311    v-18.13H151.8v18.13H169.92z M169.92,265.061v-18.12H151.8v18.12H169.92z M133.67,373.801V355.67h-18.12v18.131H133.67z     M133.67,337.551v-18.12h-18.12v18.12H133.67z M133.67,301.311v-18.13h-18.12v18.13H133.67z M133.67,265.061v-18.12h-18.12v18.12    H133.67z" style="fill:#CAE8FB;"/>
<path d="M383.29,283.181c12.28,0,22.22,9.939,22.22,22.199c0,22.19-22.22,34.82-44.41,57.021    c-22.189-22.2-44.38-34.83-44.38-57.021c0-12.26,9.94-22.199,22.19-22.199c11.09,0,16.64,5.55,22.189,16.649    C366.65,288.73,372.2,283.181,383.29,283.181z" style="fill:#EF3E5C;"/>
<g>
<g>
<g>
<path d="M329.72,312.38c0-12.26,9.94-22.199,22.19-22.199c1.141,0,2.21,0.073,3.239,0.191       c-4.072-4.783-8.959-7.191-16.239-7.191c-12.25,0-22.19,9.939-22.19,22.199c0,22.19,22.19,34.82,44.38,57.021       c0.92-0.921,1.84-1.819,2.76-2.709C345.562,343.054,329.72,331.129,329.72,312.38z" style="fill:#E42A53;"/>
</g>
</g>
</g>
<polygon points="378.33,120.08 378.33,156.33 333.02,156.33 333.02,120.08 333.02,83.84 378.33,83.84   " style="fill:#415A6B;"/>
<polygon points="342.02,130.747 342.02,94.507 378.33,94.507 378.33,83.84 333.02,83.84 333.02,120.08     333.02,156.33 342.02,156.33   " style="fill:#354D5B;"/>
<g>
<g>
<g>
<path d="M79.917,396.451v-194.82v-31.71c0-22.521,18.25-40.78,40.77-40.78h12.983v-9.061h-22.65       c-22.52,0-40.77,18.26-40.77,40.78v31.71v194.82c0,14.134,7.19,26.582,18.112,33.896       C83.07,414.409,79.917,405.801,79.917,396.451z" style="fill:#AACFE2;"/>
</g>
</g>
</g>
<polygon points="178.98,120.08 178.98,156.33 133.67,156.33 133.67,120.08 133.67,83.84 178.98,83.84   " style="fill:#415A6B;"/>
<polygon points="142.73,130.746 142.73,94.507 178.98,94.507 178.98,83.84 133.67,83.84 133.67,120.08     133.67,156.33 142.73,156.33   " style="fill:#354D5B;"/>
<rect height="18.131" style="fill:#415A6B;" width="18.12" x="296.78" y="355.67"/>
<rect height="18.12" style="fill:#415A6B;" width="18.12" x="296.78" y="246.94"/>
<rect height="18.131" style="fill:#415A6B;" width="18.12" x="260.53" y="355.67"/>
<rect height="18.13" style="fill:#415A6B;" width="18.12" x="260.53" y="283.181"/>
<rect height="18.12" style="fill:#415A6B;" width="18.12" x="260.53" y="246.94"/>
<rect height="18.131" style="fill:#415A6B;" width="18.12" x="224.29" y="355.67"/>
<rect height="18.12" style="fill:#415A6B;" width="18.12" x="224.29" y="319.431"/>
<rect height="18.13" style="fill:#415A6B;" width="18.12" x="224.29" y="283.181"/>
<rect height="18.12" style="fill:#415A6B;" width="18.12" x="224.29" y="246.94"/>
<rect height="18.131" style="fill:#415A6B;" width="18.12" x="188.04" y="355.67"/>
<rect height="18.12" style="fill:#415A6B;" width="18.12" x="188.04" y="319.431"/>
<rect height="18.13" style="fill:#415A6B;" width="18.12" x="188.04" y="283.181"/>
<rect height="18.12" style="fill:#415A6B;" width="18.12" x="188.04" y="246.94"/>
<rect height="18.131" style="fill:#415A6B;" width="18.12" x="151.8" y="355.67"/>
<rect height="18.12" style="fill:#415A6B;" width="18.12" x="151.8" y="319.431"/>
<rect height="18.13" style="fill:#415A6B;" width="18.12" x="151.8" y="283.181"/>
<rect height="18.12" style="fill:#415A6B;" width="18.12" x="151.8" y="246.94"/>
<rect height="18.131" style="fill:#415A6B;" width="18.12" x="115.55" y="355.67"/>
<rect height="18.12" style="fill:#415A6B;" width="18.12" x="115.55" y="319.431"/>
<rect height="18.13" style="fill:#415A6B;" width="18.12" x="115.55" y="283.181"/>
<rect height="18.12" style="fill:#415A6B;" width="18.12" x="115.55" y="246.94"/>
<path d="M360.14,197.57H79.25c-2.761,0-5-2.239-5-5c0-2.762,2.239-5,5-5h280.89c2.762,0,5,2.238,5,5    C365.14,195.331,362.901,197.57,360.14,197.57z" style="fill:#AACFE2;"/>
<path d="M405.45,197.57h-9.061c-2.762,0-5-2.239-5-5c0-2.762,2.238-5,5-5h9.061c2.762,0,5,2.238,5,5    C410.45,195.331,408.212,197.57,405.45,197.57z" style="fill:#AACFE2;"/>
</g>
</g>
<g id="Layer_1"/>
</svg>